<?xml version="1.0" encoding="UTF-8"?>
<svg id="_レイヤー_2" data-name="レイヤー 2" xmlns="http://www.w3.org/2000/svg" xmlns:xlink="http://www.w3.org/1999/xlink" viewBox="0 0 191.92 44">
  <defs>
    <style>
      .cls-1 {
        fill: none;
      }

      .cls-2 {
        fill: url(#symbol_green_gradation);
      }

      .cls-3 {
        fill: url(#symbol_green_circle);
      }

      .cls-4 {
        fill: #32b6a0;
      }

      .cls-5 {
        fill: #3f3f3f;
      }

      .cls-6 {
        fill: url(#symbol_blue_gradation);
      }

      .cls-7 {
        fill: url(#symbol_blue_circle);
      }
    </style>
    <linearGradient id="symbol_blue_circle" data-name="symbol blue circle" x1="10.54" y1="31.88" x2="6.43" y2="27.77" gradientUnits="userSpaceOnUse">
      <stop offset="0" stop-color="#009bd9"/>
      <stop offset="0" stop-color="#0099d8"/>
      <stop offset=".1" stop-color="#008dd1"/>
      <stop offset=".21" stop-color="#0086cd"/>
      <stop offset=".49" stop-color="#0084cc"/>
      <stop offset=".78" stop-color="#0086cd"/>
      <stop offset=".91" stop-color="#008dd1"/>
      <stop offset="1" stop-color="#0099d7"/>
      <stop offset="1" stop-color="#009ad8"/>
    </linearGradient>
    <linearGradient id="symbol_blue_gradation" data-name="symbol blue gradation" x1="24.16" y1="32.6" x2="6" y2="14.43" gradientUnits="userSpaceOnUse">
      <stop offset="0" stop-color="#6ec2ed"/>
      <stop offset=".49" stop-color="#0084cc"/>
      <stop offset=".57" stop-color="#0889ce"/>
      <stop offset=".7" stop-color="#2196d5"/>
      <stop offset=".87" stop-color="#48ace1"/>
      <stop offset="1" stop-color="#6ec2ed"/>
    </linearGradient>
    <linearGradient id="symbol_green_gradation" data-name="symbol green gradation" x1="31.74" y1="21.76" x2="16.07" y2="6.09" gradientUnits="userSpaceOnUse">
      <stop offset="0" stop-color="#c1da75"/>
      <stop offset=".09" stop-color="#abd165"/>
      <stop offset=".27" stop-color="#84c247"/>
      <stop offset=".41" stop-color="#6bb835"/>
      <stop offset=".5" stop-color="#63b52f"/>
      <stop offset=".59" stop-color="#6bb835"/>
      <stop offset=".73" stop-color="#84c148"/>
      <stop offset=".92" stop-color="#abd165"/>
      <stop offset="1" stop-color="#c0d975"/>
    </linearGradient>
    <linearGradient id="symbol_green_circle" data-name="symbol green circle" x1="30.3" y1="10.65" x2="27.02" y2="7.37" gradientUnits="userSpaceOnUse">
      <stop offset="0" stop-color="#8dc33e"/>
      <stop offset="0" stop-color="#8ac23c"/>
      <stop offset=".07" stop-color="#78bc36"/>
      <stop offset=".15" stop-color="#6cb832"/>
      <stop offset=".25" stop-color="#65b52f"/>
      <stop offset=".5" stop-color="#63b52f"/>
      <stop offset=".75" stop-color="#65b52f"/>
      <stop offset=".85" stop-color="#6cb732"/>
      <stop offset=".93" stop-color="#78bb36"/>
      <stop offset=".99" stop-color="#8ac13d"/>
      <stop offset="1" stop-color="#8cc23e"/>
    </linearGradient>
  </defs>
  <g id="cl">
    <g id="levwell_yakuzaishi_cl_yoko_bylv">
      <g>
        <g>
          <path class="cls-5" d="M117.76,35.61v1.28h-.46v-3.43h1.01c.22,0,.41.03.57.08.16.05.29.12.4.21.11.09.18.2.24.34.05.13.08.28.08.44s-.03.31-.08.44-.14.25-.25.34-.24.17-.4.22c-.16.05-.34.08-.55.08h-.55ZM117.76,35.24h.55c.13,0,.25-.02.35-.05s.19-.08.25-.15c.07-.06.12-.14.16-.23s.05-.18.05-.29c0-.22-.07-.39-.2-.51-.13-.12-.34-.18-.61-.18h-.55v1.41Z"/>
          <path class="cls-5" d="M120.84,35.46v1.43h-.46v-3.43h.97c.22,0,.4.02.56.07.16.04.29.11.39.19s.18.18.23.3.07.25.07.39c0,.12-.02.23-.06.34-.04.11-.09.2-.17.28-.07.08-.16.16-.27.21-.1.06-.22.1-.36.13.06.03.11.08.15.15l1,1.36h-.41c-.08,0-.15-.03-.19-.1l-.89-1.23s-.06-.07-.09-.08-.08-.03-.14-.03h-.35ZM120.84,35.12h.49c.14,0,.25-.02.36-.05.1-.03.19-.08.26-.14.07-.06.12-.13.16-.21.04-.08.05-.17.05-.28,0-.2-.07-.36-.2-.46-.13-.1-.34-.16-.6-.16h-.51v1.3Z"/>
          <path class="cls-5" d="M126.75,35.18c0,.26-.04.49-.12.71-.08.21-.2.4-.34.55-.15.15-.33.27-.54.36-.21.09-.44.13-.69.13s-.48-.04-.69-.13c-.21-.09-.39-.21-.53-.36-.15-.15-.26-.34-.34-.55-.08-.21-.12-.45-.12-.71s.04-.49.12-.71c.08-.21.2-.4.34-.56s.33-.28.53-.36c.21-.09.44-.13.69-.13s.48.04.69.13c.21.09.39.21.54.36s.26.34.34.56.12.45.12.71ZM126.27,35.18c0-.21-.03-.4-.09-.57-.06-.17-.14-.31-.24-.42-.11-.12-.23-.2-.38-.27-.15-.06-.32-.09-.5-.09s-.35.03-.5.09c-.15.06-.28.15-.38.27-.11.12-.19.26-.25.42-.06.17-.09.36-.09.57s.03.4.09.57c.06.17.14.31.25.42.11.12.23.2.38.27.15.06.32.09.5.09s.35-.03.5-.09c.15-.06.28-.15.38-.27.11-.12.19-.26.24-.42.06-.17.09-.36.09-.57Z"/>
          <path class="cls-5" d="M130.51,35.18c0,.26-.04.49-.12.7-.08.21-.2.39-.34.54-.15.15-.33.27-.53.35-.21.08-.44.12-.69.12h-1.28v-3.43h1.28c.25,0,.48.04.69.12.21.08.39.2.53.35.15.15.26.33.34.54.08.21.12.44.12.7ZM130.04,35.18c0-.21-.03-.4-.09-.56-.06-.17-.14-.31-.24-.42-.11-.11-.23-.2-.38-.26s-.32-.09-.5-.09h-.82v2.68h.82c.18,0,.35-.03.5-.09s.28-.15.38-.26c.11-.11.19-.25.24-.42.06-.17.09-.35.09-.57Z"/>
          <path class="cls-5" d="M132.67,36.52c.14,0,.27-.02.38-.07.11-.05.21-.11.28-.2s.14-.19.18-.31c.04-.12.06-.25.06-.4v-2.09h.46v2.09c0,.2-.03.38-.09.55s-.15.32-.27.44c-.12.12-.26.22-.43.29s-.36.11-.57.11-.4-.04-.57-.11-.31-.17-.43-.29c-.12-.12-.21-.27-.27-.44s-.09-.35-.09-.55v-2.09h.46v2.08c0,.14.02.28.06.39.04.12.1.22.18.31s.17.15.28.2c.11.05.24.07.38.07Z"/>
          <path class="cls-5" d="M137.44,36.18s.05.01.07.03l.18.2c-.14.16-.31.29-.51.38-.2.09-.44.14-.72.14-.25,0-.47-.04-.67-.13-.2-.09-.37-.21-.51-.36s-.25-.34-.33-.55c-.08-.22-.12-.45-.12-.71s.04-.5.13-.71c.08-.22.2-.4.35-.56.15-.15.33-.27.54-.36.21-.09.44-.13.7-.13s.47.04.65.12c.18.08.35.18.49.32l-.15.21s-.02.03-.04.04-.04.02-.06.02c-.02,0-.04,0-.07-.02-.02-.02-.05-.03-.08-.06-.03-.02-.07-.05-.11-.07s-.09-.05-.15-.07c-.06-.02-.13-.04-.21-.06-.08-.02-.17-.02-.27-.02-.18,0-.35.03-.5.09-.15.06-.28.15-.39.27-.11.12-.2.26-.26.43s-.09.36-.09.56.03.4.09.57.15.31.25.42.23.2.38.26c.15.06.3.09.47.09.1,0,.19,0,.28-.02.08-.01.16-.03.23-.06.07-.03.13-.06.19-.1.06-.04.12-.09.18-.14.03-.02.05-.04.08-.04Z"/>
          <path class="cls-5" d="M140.63,33.46v.38h-1.65v1.14h1.33v.36h-1.33v1.17h1.65v.38h-2.11v-3.43h2.11Z"/>
          <path class="cls-5" d="M144.46,35.18c0,.26-.04.49-.12.7s-.2.39-.34.54c-.15.15-.33.27-.53.35-.21.08-.44.12-.69.12h-1.28v-3.43h1.28c.25,0,.48.04.69.12.21.08.39.2.53.35.15.15.26.33.34.54.08.21.12.44.12.7ZM143.99,35.18c0-.21-.03-.4-.09-.56-.06-.17-.14-.31-.24-.42-.11-.11-.23-.2-.38-.26-.15-.06-.32-.09-.5-.09h-.82v2.68h.82c.18,0,.35-.03.5-.09.15-.06.28-.15.38-.26.11-.11.19-.25.24-.42.06-.17.09-.35.09-.57Z"/>
          <g>
            <path class="cls-5" d="M146.22,36.89v-3.43h1.09c.21,0,.39.02.54.06s.28.1.38.18c.1.08.17.17.22.28.05.11.07.24.07.37,0,.08-.01.17-.04.24-.03.08-.07.15-.12.22-.05.07-.12.13-.2.18-.08.05-.18.1-.28.13.25.05.44.14.57.27s.19.3.19.52c0,.15-.03.28-.08.4-.05.12-.13.22-.23.31-.1.09-.23.15-.38.2-.15.05-.32.07-.51.07h-1.21ZM146.69,35h.61c.13,0,.24-.01.34-.04.1-.03.18-.07.24-.12.06-.05.11-.11.14-.19s.05-.15.05-.24c0-.2-.06-.35-.18-.44-.12-.09-.31-.14-.57-.14h-.63v1.17ZM146.69,35.33v1.19h.74c.13,0,.25-.02.34-.05s.17-.07.23-.13c.06-.06.11-.12.14-.2.03-.08.04-.16.04-.25,0-.18-.06-.32-.19-.42-.13-.1-.31-.15-.57-.15h-.74Z"/>
            <path class="cls-5" d="M150.81,35.53v1.36h-.46v-1.36l-1.26-2.07h.41s.07.01.1.03c.02.02.04.05.06.08l.79,1.33c.03.06.06.11.08.16.02.05.04.1.06.15.02-.05.04-.1.06-.15.02-.05.05-.1.08-.16l.78-1.33s.03-.05.06-.07.06-.03.1-.03h.41l-1.26,2.07Z"/>
          </g>
          <g>
            <polygon points="155.46 32.48 154.5 32.48 154.5 36.89 157.38 36.89 157.38 36.13 155.46 36.13 155.46 32.48"/>
            <polygon points="163.74 33.2 162.91 35.64 162.07 33.2 161.1 33.2 162.35 36.89 163.25 36.89 164.5 33.2 163.74 33.2"/>
            <path d="M169.55,33.78v-.58h-.93v3.69h.93v-2.2c.16-.3.51-.75,1.18-.65v-.91c-.67-.1-1.02.35-1.18.65Z"/>
            <path d="M184.61,35.17c-.13-.17-.4-.34-.82-.53l-.25-.11c-.14-.06-.24-.12-.3-.19-.05-.06-.08-.13-.08-.21,0-.1.04-.18.12-.24.08-.06.21-.1.38-.1.37,0,.89.22.89.22v-.76s-.5-.14-.96-.14-.79.11-1.01.32c-.24.23-.36.5-.36.8,0,.25.09.47.25.66.15.17.37.32.68.46l.29.13c.15.07.25.13.32.2.07.06.1.14.1.24,0,.11-.04.2-.13.27-.09.07-.21.11-.37.11-.53,0-1.15-.32-1.15-.32v.79s.59.21,1.21.21c.45,0,.8-.12,1.03-.35.24-.23.36-.51.36-.83,0-.24-.07-.45-.2-.63Z"/>
            <path d="M159.23,33.12c-1.06.02-1.47,1.1-1.47,1.9s.33,1.66,1.21,1.88,1.73-.14,1.73-.14v-.76s-.74.34-1.23.24c-.49-.1-.7-.49-.73-.89h1.97c.02-1.39-.3-2.25-1.47-2.22ZM159.79,34.7h-1.08c.05-.47.22-.9.57-.9.55,0,.51.9.51.9Z"/>
            <path d="M166.29,33.12c-1.06.02-1.47,1.1-1.47,1.9s.33,1.66,1.21,1.88,1.73-.14,1.73-.14v-.76s-.74.34-1.23.24c-.49-.1-.7-.49-.73-.89h1.97c.02-1.39-.3-2.25-1.47-2.22ZM166.85,34.7h-1.08c.05-.47.22-.9.57-.9.55,0,.51.9.51.9Z"/>
            <path d="M180.01,33.12c-1.06.02-1.47,1.1-1.47,1.9s.33,1.66,1.21,1.88,1.73-.14,1.73-.14v-.76s-.74.34-1.23.24c-.49-.1-.7-.49-.73-.89h1.97c.02-1.39-.3-2.25-1.47-2.22ZM180.57,34.7h-1.08c.05-.47.22-.9.57-.9.55,0,.51.9.51.9Z"/>
            <path d="M173.05,36.51h0c.18.58.82.52,1.21.37v-.68s-.36.16-.36-.19v-1.72c0-.45-.13-.91-.74-1.09s-1.28-.01-1.73.19v.76s.53-.35,1.04-.34c.33,0,.55.12.55.52v.16s-.11,0-.2,0c-.31,0-.88.08-1.28.47-.26.26-.4.58-.4.95,0,.3.12.74.47.94.32.19.95.25,1.44-.33ZM172.23,35.34c.13-.11.34-.17.62-.17h.17v.71c-.27.3-.58.38-.77.27-.18-.1-.22-.27-.22-.41,0-.16.07-.3.2-.41Z"/>
            <path d="M177.04,33.19l-.08.28c-.3-.29-.57-.36-.86-.36-.43,0-.66.13-.91.37-.25.25-.45.74-.45,1.31s.23,1.2.73,1.41c.5.21,1.15.12,1.48-.47v.29c0,.37-.07.72-.65.8s-1.22-.24-1.22-.24v.77c.28.1,1.28.39,2.02.03.73-.35.76-1.22.76-1.79v-2.41h-.81ZM176.94,35.08c-.2.31-.61.56-.94.38-.31-.17-.31-.58-.31-.7,0-.3.07-.63.26-.82s.6-.29.99.14v1Z"/>
          </g>
        </g>
        <g>
          <g>
            <g>
              <g>
                <path class="cls-7" d="M8.49,32.73c1.61,0,2.91-1.3,2.91-2.91s-1.3-2.91-2.91-2.91-2.91,1.3-2.91,2.91,1.3,2.91,2.91,2.91Z"/>
                <path class="cls-6" d="M7.11,22.09c0,1.48.89,2.66,2.57,2.89,1.62.23,3.36,1.63,3.54,3.6.16,1.7,1.28,2.81,3.11,2.81h7.88c1.55,0,2.81-1.26,2.81-2.81s-1.26-2.81-2.81-2.81h-9.31c-1.21,0-2.07-.75-2.07-1.95v-9.31c0-1.58-1.27-2.86-2.85-2.86s-2.86,1.28-2.86,2.86v7.58Z"/>
              </g>
              <g>
                <path class="cls-2" d="M26.32,21.68c0,1.2.9,2.24,2.1,2.32,1.31.08,2.4-.95,2.4-2.24v-6.59c0-1.35-1.11-2.26-2.18-2.26-2.17,0-3.74-1.59-3.86-3.53-.08-1.3-.88-2.28-2.43-2.28h-6.09c-1.43,0-2.48.91-2.56,2.11-.09,1.32.96,2.41,2.26,2.41h6.57c.43,0,.81.17,1.03.53.54.88,1.27,1.62,2.27,2.12.32.16.51.49.5.84v6.57Z"/>
                <path class="cls-3" d="M28.66,6.69c-1.28,0-2.32,1.04-2.32,2.32s1.04,2.32,2.32,2.32,2.32-1.04,2.32-2.32-1.04-2.32-2.32-2.32Z"/>
              </g>
            </g>
            <g>
              <path class="cls-5" d="M52.71,16.93h-2.76c-.12,0-.23.09-.25.22-.81,5.29-5.43,7.62-7.72,7.8-.15.01-.28-.1-.28-.25v-14.03c0-.14-.11-.25-.25-.25h-2.54c-.14,0-.25.11-.25.25v17.54c0,.14.12.26.26.26,7.53-.17,12.97-4.52,14.04-11.24.02-.15-.1-.29-.25-.29Z"/>
              <path class="cls-5" d="M123.03,22.37c0-.22-.27-.33-.43-.18-1.36,1.3-3.07,2.21-3.9,2.33,0,0-.22.1-.22-.15s0-13.72,0-13.72c0-.14-.11-.25-.25-.25h-2.54c-.14,0-.25.11-.25.25v17.57c0,.15.12.27.27.26,2.63-.17,5.76-1.72,7.25-2.92.06-.05.09-.12.09-.2l-.03-2.99Z"/>
              <path class="cls-5" d="M112.15,10.41h-2.66c-.14,0-.25.11-.25.25v4.27c0,6.71-1.89,11.49-2.46,12.79-.07.17.05.35.23.35h2.75c.17,0,.33-.1.4-.26.94-1.93,2.24-6.82,2.24-13.18v-3.98c0-.14-.11-.25-.25-.25Z"/>
              <path class="cls-5" d="M89.35,13.06h-5.4c-.08,0-.15-.07-.15-.15v-2.26c0-.14-.11-.25-.25-.25h-2.57c-.14,0-.25.11-.25.25v2.26c0,.08-.07.15-.15.15h-5.03c-.14,0-.25.11-.25.25v5.86c0,.14.11.25.25.25h2.28c.14,0,.25-.11.25-.25v-3.13c0-.14.11-.25.25-.25h7.88c.34,0,.31.27.31.27-.03,5.85-2.69,9.34-7.14,9.55-.13,0-.24.11-.24.25v2.22c0,.14.12.26.26.26,2.84-.09,5.12-1,6.78-2.71,2.39-2.47,3.54-6.61,3.43-12.32,0-.14-.12-.25-.25-.25Z"/>
              <path class="cls-5" d="M102.19,25.56h-2.16c-.1,0-.19-.08-.19-.19v-4.69c0-.1.08-.19.19-.19h2.09c.14,0,.25-.11.25-.25v-2.01c0-.14-.11-.25-.25-.25h-7.62c-.14,0-.25.11-.25.25v2.01c0,.14.11.25.25.25h2.24c.1,0,.19.08.19.19v4.69c0,.1-.08.19-.19.19h-2.16c-.14,0-.25.11-.25.25v2.01c0,.14.11.25.25.25h7.61c.14,0,.25-.11.25-.25v-2.01c0-.14-.11-.25-.25-.25Z"/>
              <path class="cls-5" d="M61.2,10.41h-2.6c-.14,0-.25.11-.25.25v3.55c0,7.29-1.91,11.88-2.71,13.5-.08.17.04.36.23.36h2.88c.1,0,.18-.05.23-.14.52-1.04,2.48-5.53,2.48-13.73v-3.55c0-.14-.11-.25-.25-.25Z"/>
              <rect class="cls-5" x="65.34" y="10.41" width="2.46" height="3.5" rx=".25" ry=".25"/>
              <rect class="cls-5" x="69.02" y="10.41" width="2.46" height="3.5" rx=".25" ry=".25"/>
              <path class="cls-5" d="M68.94,20.52c-.24-1.39-.42-2.95-.48-4.69,0-.14-.12-.24-.25-.24h-2.6c-.14,0-.26.12-.25.27.06,1.74.21,3.3.41,4.67h0c.61,4.24,1.69,6.69,2.05,7.42.04.09.13.14.23.14h2.88c.19,0,.31-.19.23-.36-.54-1.09-1.58-3.52-2.2-7.2Z"/>
            </g>
          </g>
          <g>
            <path class="cls-4" d="M139.29,24.08c1.57,1.06,3.55,1.62,5.72,1.99-.32.43-.69,1.06-.95,1.69-.22.51-.3.69-.54.69-.11,0-.3-.06-.56-.14-2.28-.71-4.32-1.85-5.75-3.17.04,1.77.09,2.84.09,3.19,0,.26-.02.28-.26.28h-2.13c-.24,0-.26-.02-.26-.28,0-.35.07-1.28.09-3.03-1.38,1.32-3.34,2.4-5.44,3.05-.26.08-.43.14-.56.14-.24,0-.32-.18-.54-.67-.26-.59-.6-1.1-.95-1.52,2.26-.49,4.11-1.14,5.55-2.21h-2.47c-1.64,0-2.2.04-2.32.04-.24,0-.26-.02-.26-.26v-1.71c0-.26.02-.28.26-.28.11,0,.67.04,2.32.04h4.37v-.85c-1.27,0-1.68.04-1.83.04-.22,0-.24-.02-.24-.28,0-.14.04-.67.04-1.73v-2.48c0-1.06-.04-1.58-.04-1.75,0-.24.02-.26.24-.26.13,0,.49.04,1.53.04.04-.1.07-.22.11-.35.09-.26.15-.51.2-.93.84.08,1.48.16,2.09.26.26.04.39.12.39.26,0,.1-.04.16-.15.3-.09.1-.21.26-.28.45h.47c1.35,0,1.79-.04,1.92-.04.24,0,.26.02.26.26,0,.14-.04.69-.04,1.75v2.48c0,1.06.04,1.58.04,1.73,0,.26-.02.28-.26.28-.13,0-.58-.04-1.92-.04v.85h4.63c1.64,0,2.2-.04,2.32-.04.24,0,.26.02.26.28v1.71c0,.24-.02.26-.26.26-.11,0-.67-.04-2.32-.04h-2.58ZM137.57,10.8c-.02-.45-.04-.79-.11-1.26.8.02,1.72.06,2.39.14.19.02.28.08.28.22,0,.12-.06.22-.09.32-.04.08-.07.22-.09.57h1.7c1.94,0,2.63-.04,2.76-.04.24,0,.26.02.26.26v1.77c0,.24-.02.26-.26.26-.13,0-.82-.04-2.76-.04h-1.7c.02.45.04.67.04.77,0,.26-.02.28-.24.28h-1.96c-.22,0-.24-.02-.24-.28,0-.12.02-.37.04-.83h-3.18c.02.49.04.73.04.83,0,.24-.02.26-.24.26h-1.94c-.24,0-.26-.02-.26-.26,0-.1.02-.35.04-.77h-1.64c-1.79,0-2.45.04-2.56.04-.24,0-.26-.02-.26-.26v-1.77c0-.24.02-.26.26-.26.11,0,.77.04,2.56.04h1.64c-.02-.45-.06-.81-.11-1.26.77.02,1.72.06,2.39.14.21.02.28.08.28.22,0,.12-.06.24-.09.32-.04.08-.07.22-.09.57h3.18ZM132.19,18.62c.07.28.11.49.11.61,0,.26-.15.37-.56.63-.8.51-1.53.91-2.32,1.3-.19.1-.32.2-.41.32-.11.16-.21.22-.32.22s-.24-.08-.32-.28c-.26-.65-.5-1.36-.78-2.23.41-.1.73-.2,1.08-.37,1.01-.45,2.13-1.02,3.19-1.79.06.47.19,1.08.32,1.58ZM129.15,13.87c.17-.2.24-.2.45-.06.71.47,1.49,1.08,2.19,1.73.09.1.15.16.15.24,0,.06-.04.14-.11.24l-1.16,1.4c-.09.12-.17.18-.22.18s-.11-.04-.21-.12c-.65-.71-1.4-1.34-2.15-1.87-.09-.08-.15-.14-.15-.2s.04-.14.13-.24l1.08-1.3ZM137.22,17.08v-.81h-2.39v.81h2.39ZM134.83,19.45h2.39v-.83h-2.39v.83ZM141.53,17.65c.9.47,1.74,1,2.58,1.6.2.16.2.2.07.47l-.9,1.64c-.07.14-.13.2-.19.2s-.13-.04-.22-.12c-1.01-.77-1.96-1.42-2.99-1.97-.22-.12-.22-.18-.09-.41l.95-1.54c-.04-.08-.09-.16-.19-.3-.24-.39-.67-.91-.97-1.18.84-.49,1.59-1.08,2.17-1.69.28-.28.47-.51.62-.75.54.41,1.14.93,1.62,1.4.15.16.21.26.21.41,0,.12-.07.22-.24.3-.19.08-.28.18-.56.45-.5.45-1.08.91-1.7,1.36l-.17.12Z"/>
            <path class="cls-4" d="M157.87,13.38c0,.26-.02.28-.26.28-.06,0-.24-.02-.65-.02-.15.35-.32.69-.52,1.02-.34.55-.73,1.06-1.18,1.5.99.37,2.07.59,3.23.79-.22.55-.43,1.18-.56,1.87-.11.57-.15.75-.41.75-.13,0-.32-.04-.6-.12v6.09c0,1.58.04,2.44.04,2.58,0,.24-.02.26-.26.26h-2c-.24,0-.26-.02-.26-.26,0-.16.04-.99.04-2.58v-.49h-3.18c-.2,1.06-.62,2.15-1.12,3.03-.2.35-.32.53-.43.53-.13,0-.26-.14-.52-.41-.6-.57-1.16-1.02-1.72-1.34.62-.85,1.03-1.54,1.33-2.66.3-1.16.35-2.21.37-4.49l-.34.12c-.24.08-.39.12-.5.12-.24,0-.28-.2-.41-.75-.15-.63-.41-1.28-.71-1.81,1.57-.28,2.82-.61,3.85-1.06-.52-.49-.99-1.04-1.42-1.62-.24-.35-.45-.71-.65-1.08-.62,0-.9.02-.97.02-.24,0-.26-.02-.26-.28v-1.85c0-.26.02-.28.26-.28.13,0,.73.04,2.43.04h1.27c0-.63-.02-1.14-.11-1.83.9.02,1.77.08,2.58.16.24.02.35.1.35.22,0,.14-.02.2-.11.41-.07.16-.09.39-.09.83v.2h.84c1.7,0,2.3-.04,2.41-.04.24,0,.26.02.26.28v1.85ZM151.62,21.61c-.02.41-.04.79-.06,1.2h2.91v-1.2h-2.86ZM151.58,13.63c.45.59.97,1.08,1.55,1.48.5-.43.95-.91,1.33-1.48h-2.88ZM154.47,18.54c-.45-.2-.88-.43-1.29-.67-.49.32-1.01.61-1.53.87v.61h2.82v-.81ZM158.57,14.56c0-1.32,0-2.21-.11-3.27.9.02,1.48.06,2.35.16.22.02.32.12.32.26,0,.2-.09.41-.13.57-.06.3-.06.75-.06,2.25v5.75c0,1.69.04,2.62.04,2.76,0,.26-.02.28-.26.28h-1.92c-.24,0-.26-.02-.26-.28,0-.14.04-1.08.04-2.76v-5.73ZM164.51,20.45c0,1.69.06,3.7.06,4.89,0,1.12-.13,1.83-.78,2.31-.6.43-1.18.61-2.97.63q-.75,0-.92-.85c-.17-.79-.43-1.52-.77-2.05.84.08,1.46.1,2.13.1.5,0,.69-.16.69-.65v-11.84c0-1.4-.04-2.09-.17-3.27.91.02,1.74.06,2.62.16.22.02.35.14.35.26,0,.2-.07.32-.13.47-.11.28-.11.75-.11,2.31v7.51Z"/>
            <path class="cls-4" d="M167.96,15.86c0-2.17-.04-3.37-.04-3.53,0-.26.02-.28.26-.28.11,0,.65.02,1.61.04.19-.51.32-.91.43-1.36.09-.35.19-.77.19-1.2.86.06,1.7.16,2.24.26.32.06.47.14.47.28,0,.18-.06.26-.17.41-.11.14-.22.32-.28.51-.13.39-.26.73-.41,1.1h.35c1.01,0,1.49-.04,1.62-.04.24,0,.26.02.26.28,0,.14-.04.75-.04,1.93v2.38c0,1.16.04,1.79.04,1.91,0,.26-.02.28-.26.28-.13,0-.62-.04-1.62-.04h-2.24v1.2h2.39c1.01,0,1.51-.04,1.64-.04.24,0,.26.02.26.28,0,.14-.04.73-.04,1.93v3.35c0,1.2.04,1.77.04,1.89,0,.26-.02.28-.26.28h-1.83c-.24,0-.26-.02-.26-.28v-.49h-1.94v.89c0,.26-.02.28-.26.28h-1.92c-.24,0-.26-.02-.26-.28,0-.14.04-1.3.04-3.49v-8.45ZM172.14,16.37v-1.83h-1.77v1.83h1.77ZM172.31,22.5h-1.94v1.83h1.94v-1.83ZM180.94,14.54h.77c1.61,0,2.17-.04,2.32-.04.22,0,.24.02.24.28,0,.12-.04,1.08-.04,2.78v3.23c0,.83.06,2.05.06,2.84,0,.91-.07,1.54-.41,1.95-.26.32-.84.45-1.61.49-.71.04-.75.02-.8-.81-.04-.57-.13-1.04-.39-1.5.26.04.47.06.62.06.2,0,.26-.1.26-.47v-6.33h-1.01v7.84c0,2.23.04,3.23.04,3.47,0,.26-.02.28-.26.28h-1.92c-.22,0-.24-.02-.24-.28s.04-1.24.04-3.47v-7.84h-.95v6.38c0,1.5.04,2.27.04,2.42,0,.26-.02.28-.26.28h-1.81c-.22,0-.24-.02-.24-.28,0-.16.04-.93.04-2.52v-5.95c0-1.58-.04-2.42-.04-2.56,0-.26.02-.28.24-.28.15,0,.71.04,2.32.04h.67v-1.71h-.99c-1.68,0-2.28.04-2.41.04-.22,0-.24-.02-.24-.28v-2.11c0-.24.02-.26.24-.26.13,0,.73.04,2.41.04h4.54c1.68,0,2.28-.04,2.41-.04.24,0,.26.02.26.26v2.11c0,.26-.02.28-.26.28-.13,0-.73-.04-2.41-.04h-1.2v1.71Z"/>
          </g>
        </g>
      </g>
      <g>
        <rect class="cls-1" x="73.96" y="-73.96" width="44" height="191.92" transform="translate(117.96 -73.96) rotate(90)"/>
        <rect class="cls-1" x="7.11" y="7.11" width="177.7" height="29.78"/>
      </g>
    </g>
  </g>
</svg>