<svg width="598" height="77" viewBox="0 0 598 77" fill="none" xmlns="http://www.w3.org/2000/svg">
<path d="M9.41032 16.3914C9.41032 12.5131 12.5716 9.3665 16.4681 9.3665C20.3645 9.3665 23.5258 12.5131 23.5258 16.3914V32.7828H9.41032V16.3914ZM0 16.3914V58.5406C0 67.5998 7.36652 74.932 16.4681 74.932C25.5696 74.932 32.9361 67.5998 32.9361 58.5406V43.0566L50.0364 67.8632C55.2562 75.4296 65.5193 77.2736 72.9741 71.9757C80.4288 66.6778 82.2374 56.2429 77.0176 48.6765L58.1234 21.2649C52.9036 13.6985 42.6405 11.8545 35.1858 17.1524C34.3624 17.7378 33.6125 18.3818 32.9361 19.0696V16.3914C32.9361 7.33222 25.5696 0 16.4681 0C7.36652 0 0 7.33222 0 16.3914ZM38.9058 35.1537C36.5532 31.7437 37.4354 27.0604 40.6555 24.7627C43.7727 22.5528 48.0809 23.2553 50.3599 26.5482L60.2113 40.8321L48.4631 49.0132L38.9058 35.139V35.1537Z" fill="#49B4A4"/>
<path d="M228.86 22.5399V29.4399C228.86 35.3799 228.02 35.9799 222.08 35.9799H215.9V41.3799H221.72C228.38 41.3799 228.86 42.9399 228.86 48.6999V55.8999C228.86 62.6799 227.3 62.9199 221.78 62.9199H215.84C212.54 62.9199 209.24 62.9199 209.24 58.2399V22.3599C209.24 18.8199 209.24 16.5399 214.28 16.4799C215.66 11.7999 216.08 10.3599 218.6 10.3599C220.76 10.3599 222.62 11.3799 222.62 13.1799C222.62 13.7199 222.5 14.1999 221.84 16.4799C227.6 16.4799 228.86 17.3799 228.86 22.5399ZM215.9 24.7599V29.3199H220.94C222.32 29.3199 222.32 29.1399 222.32 27.6399V24.7599C222.32 23.6799 222.26 23.5599 221.18 23.5599H217.4C216.02 23.5599 215.9 23.5599 215.9 24.7599ZM220.76 48.1599H215.9V54.2799C215.9 55.4799 215.9 56.0199 217.28 56.0199H220.82C222.08 56.0199 222.32 55.8399 222.32 54.3999V49.6599C222.32 48.2799 222.2 48.1599 220.76 48.1599ZM250.04 19.1199V23.5599H251.66C260.06 23.5599 261.38 24.2799 261.38 31.5999V53.7999C261.38 57.8199 261.38 61.3599 256.04 61.3599C254.06 61.3599 251.06 60.8799 250.04 59.9199V60.9999C250.04 63.5799 250.04 65.9199 246.44 65.9199C242.9 65.9199 242.9 63.5199 242.9 60.9999V30.0999H240.5C238.22 30.0999 238.16 30.2199 238.16 32.1399V57.0399C238.16 59.5599 238.16 61.8399 234.98 61.8399C231.56 61.8399 231.56 59.7999 231.56 57.0399V30.8799C231.56 27.8799 231.56 26.3199 233.24 24.8199C234.62 23.5599 236.06 23.5599 239.66 23.5599H242.9V19.1199H235.52C233 19.1199 230.66 19.1199 230.66 15.8199C230.66 12.2799 232.76 12.2799 235.52 12.2799H257.54C260.06 12.2799 262.4 12.2799 262.4 15.5799C262.4 19.1199 260.36 19.1199 257.54 19.1199H250.04ZM250.04 30.0999V54.2799C250.64 53.5599 251.48 53.1999 252.32 53.1999C252.62 53.1999 254.12 53.5599 254.42 53.5599C255.02 53.5599 255.02 53.1999 255.02 51.9399V32.2599C255.02 30.0999 254.54 30.0999 252.32 30.0999H250.04Z" fill="#323945"/>
<path d="M153.98 15.0999H163.22C163.22 12.6999 163.22 10.4199 166.52 10.4199C168.08 10.4199 170.3 10.5999 170.3 13.6599V15.0999H179.06C181.1 15.0999 183.86 15.0999 183.86 18.4599C183.86 21.8799 180.8 21.8799 180.08 21.8799H178.94C178.16 24.1599 176.84 26.4399 173.12 29.9799C176.06 31.1199 176.78 31.2399 181.52 32.0199C183.62 32.3799 184.16 33.7599 184.16 35.2599C184.16 38.8599 181.64 38.7399 180.38 38.6199C180.38 38.7399 180.44 38.7999 180.44 39.3999V60.8799C180.44 63.3999 180.38 65.6799 177.2 65.6799C173.54 65.6799 173.54 63.8199 173.54 60.8799V55.3599H159.56C159.44 56.0199 156.98 65.6799 153.26 65.6799C151.64 65.6799 149.6 64.4199 149.6 62.4999C149.6 61.4799 150.14 60.4599 150.62 59.4999C152.3 56.1999 153.74 53.3799 153.74 47.2599V39.3399C153.74 38.7999 153.74 38.6799 153.8 38.4399C153.38 38.4999 152.66 38.6199 152.06 38.6199C151.16 38.6199 148.64 38.6199 148.64 34.5999C148.64 32.9199 149.72 32.0799 152.36 31.4799C157.64 30.3399 158.24 30.2199 160.46 29.4399C157.82 26.6799 155.9 24.3399 154.46 21.8799C151.76 21.8799 149.18 21.8799 149.18 18.4599C149.18 15.0999 151.88 15.0999 153.98 15.0999ZM160.4 39.0999H173.54C173.54 38.3799 173.54 38.0199 173.9 37.3599C172.34 36.8799 169.64 35.9799 166.58 34.1799C164.06 35.4399 161.78 36.3399 159.8 36.9399C160.4 37.7799 160.4 38.4999 160.4 39.0999ZM173.54 45.6999H160.4V47.5599C160.4 48.0999 160.34 48.7599 160.34 49.1199H173.54V45.6999ZM171.38 21.8799H162.02C163.34 23.5599 164.72 24.9399 166.64 26.3199C168.5 25.0599 170.18 23.5599 171.38 21.8799ZM192.08 18.3399V45.7599C192.08 48.2199 192.08 50.5599 188.96 50.5599C185.54 50.5599 185.54 48.5199 185.54 45.7599V18.3399C185.54 15.8799 185.54 13.5399 188.66 13.5399C192.08 13.5399 192.08 15.5799 192.08 18.3399ZM202.76 15.5799V59.1399C202.76 61.9599 202.76 65.5599 193.82 65.5599C190.76 65.5599 187.76 64.7799 186.86 64.2399C185.84 63.6999 185.3 62.8599 185.3 61.2399C185.3 60.5199 185.48 57.5799 188.6 57.5799C189.44 57.5799 193.1 58.4199 193.88 58.4199C196.04 58.4199 196.04 57.3399 196.04 56.4999V15.5799C196.04 13.3599 196.04 10.7799 199.4 10.7799C202.76 10.7799 202.76 13.5999 202.76 15.5799Z" fill="#323945"/>
<path d="M119.6 45.0398V47.2598H138.38C140.84 47.2598 143.18 47.2598 143.18 50.3798C143.18 53.4998 140.84 53.4998 138.38 53.4998H128.48C133.04 56.4398 136.04 57.2198 140 58.2998C141.14 58.5998 142.88 59.0798 142.88 61.6598C142.88 63.9998 140.9 65.3198 139.28 65.3198C134.9 65.3198 122.96 58.8398 119.6 54.8198V60.5198C119.6 63.0998 119.6 65.3198 116.24 65.3198C112.4 65.3198 112.4 63.6398 112.4 60.5198V54.8798C104.6 62.6198 93.6202 64.8998 92.4202 64.8998C89.7202 64.8998 88.8202 62.7998 88.8202 61.5998C88.8202 61.1798 88.8802 59.3198 91.2802 58.5398C97.4602 56.6198 98.0602 56.3198 103.46 53.4998H93.7402C91.2802 53.4998 88.9402 53.4998 88.9402 50.3798C88.9402 47.2598 91.3402 47.2598 93.7402 47.2598H112.4V45.0398H108.44C105.8 45.0398 103.82 43.5398 103.82 40.6598V29.3798C103.82 26.7398 105.56 24.9998 108.44 24.9998H111.8C113.36 21.4598 113.72 20.6798 115.58 20.6798C117.14 20.6798 119.24 21.6998 119.24 23.6198C119.24 24.1598 119.06 24.6398 118.94 24.9998H123.92C126.56 24.9998 128.48 26.4998 128.48 29.3798V40.6598C128.48 43.2998 126.74 45.0398 123.92 45.0398H119.6ZM122 37.0598H109.82V38.4998C109.82 39.0398 109.82 39.4598 110.84 39.4598H120.92C121.7 39.4598 122 39.2798 122 38.4998V37.0598ZM109.82 32.6198H122V31.2998C122 30.5198 121.7 30.2798 120.92 30.2798H110.84C109.82 30.2798 109.82 30.7598 109.82 31.2998V32.6198ZM109.04 14.5598H122.9C122.9 13.4198 122.9 10.8398 126.08 10.8398C129.5 10.8398 129.56 13.0598 129.56 14.5598H138.62C140.72 14.5598 143.36 14.5598 143.36 17.3798C143.36 20.1398 140.72 20.1398 138.62 20.1398H129.56C129.56 21.2198 129.56 23.7398 126.44 23.7398C122.96 23.7398 122.9 21.5198 122.9 20.1398H109.04C109.04 21.8198 109.04 24.2198 105.86 24.2198C103.28 24.2198 102.26 23.1998 102.26 20.6798V20.1398H93.6802C91.5202 20.1398 88.8802 20.1398 88.8802 17.3798C88.8802 14.5598 91.5202 14.5598 93.6802 14.5598H102.26C102.26 13.4198 102.26 10.8398 105.44 10.8398C108.8 10.8398 109.04 12.6998 109.04 14.5598ZM101.12 29.2598C101.12 31.8998 98.9602 32.4998 97.9402 32.4998C96.3802 32.4998 95.1202 31.5998 91.9402 29.3798C90.9802 28.6598 89.8402 27.8798 89.8402 26.1398C89.8402 24.0998 91.4602 22.8398 92.9602 22.8398C94.4002 22.8398 96.6802 24.4598 97.4002 24.9398C100.52 27.0998 101.12 27.7598 101.12 29.2598ZM98.9602 34.9598C100.4 34.9598 102.2 35.9198 102.2 38.3798C102.2 39.7598 101.84 40.7798 99.0802 42.6998C97.4602 43.8398 93.9802 45.8198 91.9402 45.8198C89.7802 45.8198 88.7002 43.5998 88.7002 41.9798C88.7002 40.3598 89.4202 39.9398 91.0402 39.1598C93.3802 37.9598 94.1002 37.5398 96.6202 35.8598C97.7002 35.1398 98.1802 34.9598 98.9602 34.9598ZM132.74 33.8798C131.42 33.8798 129.86 32.4398 129.86 30.5198C129.86 29.2598 130.52 28.6598 131.18 28.1198C132.5 27.0998 134.9 24.7598 136.64 23.0798C137.12 22.5998 137.66 22.1798 138.68 22.1798C141.26 22.1798 142.1 24.3998 142.1 25.4798C142.1 26.6198 141.26 28.0598 138.68 30.4598C135.2 33.6398 134.36 33.8798 132.74 33.8798ZM143.48 42.3398C143.12 44.3198 141.5 45.3398 140.42 45.3398C137.6 45.3398 133.58 42.3998 131.84 41.1398C131.18 40.6598 130.16 39.9398 130.16 38.4998C130.16 37.5998 131.18 34.9598 133.4 34.9598C134.54 34.9598 134.96 35.1398 138.38 37.4198C139.04 37.8998 142.4 39.3998 142.88 39.9998C143.54 40.8998 143.6 41.6198 143.48 42.3398Z" fill="#323945"/>
<path d="M496.556 63.7841C489.538 63.7841 485.652 59.3761 485.652 50.5601V37.9161H480.896C480.374 37.9161 480.084 37.5681 480.084 37.1041V31.4201C480.084 30.8981 480.374 30.6081 480.896 30.6081H485.652V21.8501C485.652 21.3861 485.942 21.0381 486.464 21.0381H493.018C493.482 21.0381 493.83 21.3861 493.83 21.8501V30.6081H501.544C502.066 30.6081 502.356 30.8981 502.356 31.4201V37.1041C502.356 37.5681 502.066 37.9161 501.544 37.9161H493.83V51.0821C493.83 54.6201 494.932 56.3601 497.484 56.3601C498.528 56.3601 499.282 55.8961 499.92 54.7941C500.152 54.3301 500.558 54.1561 501.022 54.3881L505.952 56.5921C506.242 56.7661 506.416 56.9981 506.416 57.2881C506.416 57.4621 506.358 57.6941 506.184 57.9261C503.864 62.2181 500.268 63.7841 496.556 63.7841Z" fill="#4AAC9F"/>
<path d="M456.107 63.146C455.585 63.146 455.295 62.856 455.295 62.334V31.42C455.295 30.898 455.585 30.608 456.107 30.608H462.023C462.487 30.608 462.893 30.84 462.893 31.42L463.067 35.48C465.271 32 469.099 30.144 472.985 30.144C473.913 30.144 474.551 30.26 475.189 30.376C475.711 30.492 475.885 30.782 475.885 31.246V37.684C475.885 38.206 475.595 38.38 475.189 38.38C474.319 38.38 473.333 38.148 471.999 38.148C467.591 38.148 463.415 41.164 463.415 46.326V62.334C463.415 62.856 463.125 63.146 462.603 63.146H456.107Z" fill="#4AAC9F"/>
<path d="M433.732 63.7842C423.292 63.7842 416.506 56.7662 416.506 46.9062C416.506 36.9882 423.292 29.9702 433.732 29.9702C444.172 29.9702 450.958 36.9882 450.958 46.9062C450.958 56.7662 444.172 63.7842 433.732 63.7842ZM424.916 46.9062C424.916 52.4742 428.512 56.3602 433.732 56.3602C438.952 56.3602 442.548 52.4742 442.548 46.9062C442.548 41.2802 438.952 37.3942 433.732 37.3942C428.512 37.3942 424.916 41.2802 424.916 46.9062Z" fill="#4AAC9F"/>
<path d="M380.121 76.8342C379.599 76.8342 379.309 76.5442 379.309 76.0222V31.4202C379.309 30.8982 379.599 30.6082 380.121 30.6082H386.037C386.501 30.6082 386.907 30.8402 386.907 31.4202L387.081 35.0742C389.401 31.8842 393.171 29.9702 397.695 29.9702C406.975 29.9702 412.891 36.8722 412.891 46.9062C412.891 56.8822 406.975 63.7842 397.695 63.7842C393.403 63.7842 389.865 62.1022 387.429 59.2022V76.0222C387.429 76.5442 387.139 76.8342 386.617 76.8342H380.121ZM386.907 46.9062C386.907 52.4742 390.445 56.3602 395.665 56.3602C400.885 56.3602 404.481 52.4742 404.481 46.9062C404.481 41.2802 400.885 37.3942 395.665 37.3942C390.445 37.3942 386.907 41.2802 386.907 46.9062Z" fill="#4AAC9F"/>
<path d="M342.169 76.8342C341.647 76.8342 341.357 76.5442 341.357 76.0222V31.4202C341.357 30.8982 341.647 30.6082 342.169 30.6082H348.085C348.549 30.6082 348.955 30.8402 348.955 31.4202L349.129 35.0742C351.449 31.8842 355.219 29.9702 359.743 29.9702C369.023 29.9702 374.939 36.8722 374.939 46.9062C374.939 56.8822 369.023 63.7842 359.743 63.7842C355.451 63.7842 351.913 62.1022 349.477 59.2022V76.0222C349.477 76.5442 349.187 76.8342 348.665 76.8342H342.169ZM348.955 46.9062C348.955 52.4742 352.493 56.3602 357.713 56.3602C362.933 56.3602 366.529 52.4742 366.529 46.9062C366.529 41.2802 362.933 37.3942 357.713 37.3942C352.493 37.3942 348.955 41.2802 348.955 46.9062Z" fill="#4AAC9F"/>
<path d="M316.705 63.7839C309.165 63.7839 304.815 59.2599 304.815 51.7779V31.4199C304.815 30.8979 305.163 30.6079 305.627 30.6079H312.181C312.703 30.6079 312.993 30.8979 312.993 31.4199V48.4719C312.993 53.8659 314.965 56.3599 319.199 56.3599C323.201 56.3599 326.971 53.4019 326.971 47.1959V31.4199C326.971 30.8979 327.261 30.6079 327.783 30.6079H334.279C334.801 30.6079 335.091 30.8979 335.091 31.4199V62.3339C335.091 62.8559 334.801 63.1459 334.279 63.1459H328.363C327.899 63.1459 327.493 62.9139 327.493 62.3339L327.319 58.6219C324.941 62.1019 320.823 63.7839 316.705 63.7839Z" fill="#4AAC9F"/>
<path d="M284.082 64.016C275.498 64.016 269.466 59.84 267.03 51.836C266.972 51.72 266.972 51.604 266.972 51.488C266.972 51.14 267.204 50.966 267.552 50.85L274.106 49.284C274.222 49.226 274.338 49.226 274.396 49.226C274.744 49.226 274.976 49.458 275.092 49.806C276.774 53.866 279.384 55.722 284.082 55.722C288.548 55.722 291.564 54.272 291.564 50.85C291.564 47.486 288.722 45.688 284.024 44.006L279.964 42.556C272.598 40.004 268.132 35.712 268.132 29.1C268.132 21.56 274.86 16.166 283.618 16.166C291.332 16.166 297.074 19.762 299.394 27.418C299.452 27.534 299.452 27.65 299.452 27.766C299.452 28.056 299.22 28.288 298.872 28.404L291.97 30.144C291.854 30.202 291.738 30.202 291.622 30.202C291.332 30.202 291.1 29.97 290.926 29.622C289.418 25.852 287.04 24.46 283.618 24.46C279.558 24.46 276.948 26.142 276.948 28.868C276.948 31.71 279.326 33.624 284.72 35.422L287.968 36.524C296.32 39.25 300.38 43.252 300.38 50.85C300.38 58.506 293.71 64.016 284.082 64.016Z" fill="#4AAC9F"/>
<path d="M565.996 62.3322C565.672 62.3322 565.492 62.1522 565.492 61.8282V42.6402C565.492 42.3162 565.672 42.1362 565.996 42.1362H569.668C569.956 42.1362 570.208 42.2802 570.208 42.6402L570.316 45.0522C571.756 42.8922 574.204 41.7402 576.724 41.7402C579.748 41.7402 581.98 43.0722 583.06 45.4482C584.536 43.0002 587.2 41.7402 589.972 41.7402C594.364 41.7402 597.064 44.5482 597.064 49.1922V61.8282C597.064 62.1522 596.848 62.3322 596.56 62.3322H592.492C592.168 62.3322 591.988 62.1522 591.988 61.8282V51.2442C591.988 47.8962 590.728 46.3482 588.388 46.3482C586.012 46.3482 583.816 48.1842 583.816 52.0362V61.8282C583.816 62.1522 583.6 62.3322 583.312 62.3322H579.244C578.92 62.3322 578.74 62.1522 578.74 61.8282V51.2442C578.74 47.8962 577.48 46.3482 575.14 46.3482C572.764 46.3482 570.532 48.1842 570.532 52.0362V61.8282C570.532 62.1522 570.352 62.3322 570.028 62.3322H565.996Z" fill="#9397A3"/>
<path d="M551.388 62.7282C544.908 62.7282 540.696 58.3722 540.696 52.2522C540.696 46.0962 544.908 41.7402 551.388 41.7402C557.868 41.7402 562.08 46.0962 562.08 52.2522C562.08 58.3722 557.868 62.7282 551.388 62.7282ZM545.916 52.2522C545.916 55.7082 548.148 58.1202 551.388 58.1202C554.628 58.1202 556.86 55.7082 556.86 52.2522C556.86 48.7602 554.628 46.3482 551.388 46.3482C548.148 46.3482 545.916 48.7602 545.916 52.2522Z" fill="#9397A3"/>
<path d="M528.889 62.7282C522.517 62.7282 518.521 58.4442 518.521 52.2522C518.521 46.0242 522.553 41.7402 528.853 41.7402C533.389 41.7402 536.557 43.6122 538.033 47.6082C538.069 47.6802 538.069 47.7522 538.069 47.7882C538.069 48.0042 537.925 48.1842 537.673 48.2562L534.145 49.2642C533.965 49.2642 533.785 49.1202 533.641 48.9042C532.741 47.2122 531.265 46.3482 529.177 46.3482C525.505 46.3482 523.741 49.0482 523.741 52.2522C523.741 55.4202 525.505 58.1202 529.177 58.1202C531.265 58.1202 532.849 57.2202 533.677 55.4202C533.857 55.1682 534.073 55.0242 534.361 55.1322L538.069 56.0322C538.357 56.1042 538.501 56.3202 538.357 56.6442C536.773 60.8202 533.353 62.7282 528.889 62.7282Z" fill="#9397A3"/>
<path d="M513.256 62.7278C511.456 62.7278 510.088 61.4318 510.088 59.6318C510.088 57.8318 511.456 56.5718 513.256 56.5718C515.056 56.5718 516.424 57.8318 516.424 59.6318C516.424 61.4318 515.056 62.7278 513.256 62.7278Z" fill="#9397A3"/>
</svg>
